<?xml version="1.0" encoding="utf-8"?>
<!-- Generator: Adobe Illustrator 21.0.0, SVG Export Plug-In . SVG Version: 6.00 Build 0)  -->
<svg version="1.1" id="Layer_1" xmlns="http://www.w3.org/2000/svg" xmlns:xlink="http://www.w3.org/1999/xlink" x="0px" y="0px"
	 viewBox="0 0 375 101" style="enable-background:new 0 0 375 101;" xml:space="preserve">
<style type="text/css">
	.st0{filter:url(#Adobe_OpacityMaskFilter);}
	.st1{fill:#FFFFFF;}
	.st2{mask:url(#b);}
	.st3{fill:#F6FBFF;}
</style>
<g>
	<defs>
		<filter id="Adobe_OpacityMaskFilter" filterUnits="userSpaceOnUse" x="-10.1" y="-18.1" width="399.9" height="122.5">
			<feColorMatrix  type="matrix" values="1 0 0 0 0  0 1 0 0 0  0 0 1 0 0  0 0 0 1 0"/>
		</filter>
	</defs>
	<mask maskUnits="userSpaceOnUse" x="-10.1" y="-18.1" width="399.9" height="122.5" id="b">
		<g class="st0">
			<path id="a" class="st1" d="M0,0h375v112H0V0z"/>
		</g>
	</mask>
	<g class="st2">
		<path class="st3" d="M389,87.3c0.2-0.9,0.5-1.9,0.8-2.8c-3.9-22.2-7.9-44.4-10.5-66.8c-1.2-10.6-1.4-21.2-1.3-31.8
			c-83.2,1.4-166.5,1.5-249.8-0.9c-23.7-0.7-47.4-2.1-71.1-2.6c-20-0.4-40-0.3-60-0.2c-1.5,20.2-3.5,40.4-7.3,60.3
			C97.6-6.5,230.7,12.1,327.7,77.3c18.6,12.5,37.9,21.5,58,27.1C386.4,98.6,387.7,92.8,389,87.3z"/>
	</g>
</g>
</svg>
