<?xml version="1.0" encoding="utf-8"?>
<!-- Generator: Adobe Illustrator 21.0.0, SVG Export Plug-In . SVG Version: 6.00 Build 0)  -->
<svg version="1.1" id="Layer_1" xmlns="http://www.w3.org/2000/svg" xmlns:xlink="http://www.w3.org/1999/xlink" x="0px" y="0px"
	 viewBox="0 0 375 103" style="enable-background:new 0 0 375 103;" xml:space="preserve">
<style type="text/css">
	.st0{filter:url(#Adobe_OpacityMaskFilter);}
	.st1{fill:#FFFFFF;}
	.st2{mask:url(#b);}
	.st3{fill:#F6FBFF;}
</style>
<g>
	<defs>
		<filter id="Adobe_OpacityMaskFilter" filterUnits="userSpaceOnUse" x="-4.7" y="0" width="380.8" height="128.5">
			<feColorMatrix  type="matrix" values="1 0 0 0 0  0 1 0 0 0  0 0 1 0 0  0 0 0 1 0"/>
		</filter>
	</defs>
	<mask maskUnits="userSpaceOnUse" x="-4.7" y="0" width="380.8" height="128.5" id="b">
		<g class="st0">
			<path id="a" class="st1" d="M0,0h375v103H0V0z"/>
		</g>
	</mask>
	<g class="st2">
		<path class="st3" d="M375.5,105.9c-0.1-2.6,0.1-5.3,0.5-8c-40.9-11.8-83.8-32.2-129.2-62.3c-75.5-50-159.4-47.3-251.6,8.1
			C-4.8,62-4.6,80.2-3.8,98.5c0.3,8,0.7,16.1,1.2,24.1c97.2,1.9,194.4,9.1,291.6,4.3c26.6-1.3,53.2-2.8,79.8-4.3
			c1.4-5.6,3.8-11.1,6.8-15.9C375.5,106.5,375.5,106.2,375.5,105.9z"/>
	</g>
</g>
</svg>
